<svg width="218" height="232" viewBox="0 0 218 232" fill="none" xmlns="http://www.w3.org/2000/svg">
<path fill-rule="evenodd" clip-rule="evenodd" d="M88.5539 0.0520382C86.3093 0.923334 83.7582 2.73028 80.9549 5.96299C76.6535 10.9234 72.4411 18.5176 68.7529 28.4979C64.8223 39.1267 61.6531 52.0229 59.547 66.4191H124.28C122.174 52.0229 119 39.1267 115.074 28.4979C111.386 18.5176 107.173 10.9234 102.872 5.96299C100.069 2.73028 97.5126 0.923334 95.2729 0.0520382C93.0322 -0.0173461 90.7947 -0.0173461 88.5539 0.0520382ZM44.5614 66.4191H-7.03011C5.5427 35.7653 31.9046 12.2452 64.3279 3.59663C60.7385 9.25511 57.5743 15.9482 54.8402 23.3444C50.3164 35.592 46.7912 50.2605 44.5664 66.4141M-11.8803 132.836H42.92C42.2032 124.26 41.8469 115.658 41.8521 107.053C41.8521 98.2412 42.2229 89.6074 42.9249 81.2707H-11.8803C-13.9576 89.7069 -15.0052 98.3643 -15 107.053C-15 115.944 -13.9172 124.578 -11.8803 132.836ZM44.5565 147.687C45.8864 157.39 47.6861 166.549 49.8862 174.98V205.524C24.0871 194.442 3.65365 173.677 -7.03011 147.682L44.5565 147.687ZM128.987 23.3444C126.253 15.9482 123.083 9.25511 119.494 3.59168C151.927 12.2403 178.289 35.7603 190.857 66.4141H139.26C137.036 50.2605 133.51 35.592 128.987 23.3444ZM195.712 81.2658H140.902C141.47 88.0431 141.822 95.0085 141.93 102.108C146.967 102.167 151.962 103.03 156.728 104.662C163.966 107.137 175.476 111.316 191.257 117.731C193.624 118.695 195.87 119.619 197.996 120.504C199.639 107.396 198.865 94.0933 195.712 81.2658ZM126.015 81.2707C126.688 88.9264 127.059 96.6057 127.128 104.291L125.981 104.667C118.738 107.142 107.228 111.321 91.4512 117.736C81.6124 121.741 73.8898 125.078 67.9618 127.756C65.0921 129.049 62.4309 130.762 60.0661 132.841H57.8066C57.0532 124.266 56.6787 115.661 56.6843 107.053C56.6843 98.1768 57.0799 89.5431 57.8116 81.2707H126.015ZM130.781 116.246C137.638 113.894 145.081 113.894 151.937 116.246C158.908 118.632 170.156 122.707 185.681 129.019C193.399 132.142 201.059 135.41 208.656 138.821C214.519 141.469 218 146.9 218 152.796C218 158.692 214.519 164.123 208.656 166.772C201.059 170.18 193.399 173.447 185.681 176.569C170.156 182.886 158.908 186.96 151.937 189.341C145.079 191.695 137.634 191.695 130.776 189.341C123.81 186.96 112.562 182.886 97.038 176.569C91.1791 174.192 85.3511 171.74 79.5557 169.212V212.5C79.5557 214.469 78.7743 216.358 77.3835 217.751C75.9928 219.143 74.1064 219.926 72.1395 219.926C70.1727 219.926 68.2864 219.143 66.8956 217.751C65.5048 216.358 64.7234 214.469 64.7234 212.5V153.326L64.7135 152.791C64.7135 146.895 68.1991 141.464 74.0579 138.816C81.6562 135.405 89.3175 132.137 97.038 129.014C112.562 122.702 123.81 118.632 130.781 116.246ZM125.986 203.391C118.817 200.94 107.46 196.821 91.9159 190.509C91.9406 200.133 92.44 206.45 92.9789 210.51C93.333 213.332 94.3679 216.025 95.9942 218.358C97.6205 220.69 99.7893 222.591 102.313 223.896C109.057 227.386 121.724 232 141.357 232C160.99 232 173.652 227.386 180.4 223.896C182.924 222.59 185.092 220.688 186.718 218.355C188.343 216.022 189.377 213.327 189.73 210.505C190.274 206.45 190.768 200.133 190.798 190.514C175.253 196.826 163.902 200.94 156.733 203.391C146.746 206.807 135.968 206.807 125.981 203.391" fill="#17334F"/>
</svg>
